<?xml version="1.0" standalone="no"?>
<!DOCTYPE svg PUBLIC "-//W3C//DTD SVG 20010904//EN"
 "http://www.w3.org/TR/2001/REC-SVG-20010904/DTD/svg10.dtd">
<svg version="1.0" xmlns="http://www.w3.org/2000/svg"
 width="500.000000pt" height="500.000000pt" viewBox="0 0 500.000000 500.000000"
 preserveAspectRatio="xMidYMid meet">
<metadata>
Created by potrace 1.14, written by Peter Selinger 2001-2017
</metadata>
<g transform="translate(0.000000,500.000000) scale(0.100000,-0.100000)"
fill="#000000" stroke="none">
<path d="M1775 4098 c-11 -6 -49 -35 -85 -63 -36 -29 -83 -63 -105 -77 -42
-25 -175 -84 -260 -115 -63 -22 -120 -79 -153 -151 -21 -47 -26 -75 -28 -162
-2 -89 1 -113 19 -160 19 -48 26 -55 51 -56 75 -3 194 95 282 231 30 45 58 77
72 81 40 11 87 -5 110 -36 27 -36 50 -123 46 -170 -3 -32 -15 -119 -19 -130
-1 -3 -5 -18 -10 -35 -9 -36 -69 -159 -95 -195 -18 -25 -60 -142 -60 -166 0
-15 -27 -100 -41 -129 -43 -92 -23 -290 45 -431 48 -101 113 -179 224 -271 35
-30 42 -41 38 -62 -3 -14 -8 -39 -10 -54 -5 -30 -26 -97 -30 -97 -1 0 -20 9
-42 19 -52 25 -222 22 -320 -7 -84 -24 -144 -92 -148 -167 -1 -5 -15 -11 -32
-12 -45 -2 -73 -19 -80 -51 -4 -15 -12 -35 -19 -45 -11 -16 -14 -15 -35 16
-29 42 -103 85 -161 92 -125 16 -268 -3 -300 -41 -8 -10 -11 -91 -11 -305 1
-328 -1 -321 75 -335 68 -12 217 -11 282 3 59 12 62 11 125 -19 92 -45 149
-38 171 19 11 31 21 29 42 -7 10 -16 25 -31 33 -31 8 -1 20 -2 27 -3 6 -1 33
4 60 10 30 8 59 9 80 4 47 -12 147 -18 183 -10 22 5 36 2 54 -12 16 -13 32
-17 52 -13 18 4 37 1 51 -7 40 -26 208 -29 235 -5 19 18 37 11 76 -28 18 -18
31 -23 53 -19 15 3 32 9 36 13 4 5 25 5 45 1 59 -10 202 -4 265 13 33 9 76 27
96 40 36 24 37 24 60 6 53 -43 175 -53 263 -22 43 15 48 15 72 0 37 -25 241
-18 312 10 l51 20 38 -23 c32 -19 52 -22 133 -22 55 0 114 6 141 14 25 8 51
16 56 17 26 6 104 63 121 89 22 32 34 36 34 9 0 -10 10 -30 21 -45 21 -27 24
-27 113 -25 89 2 123 10 139 33 4 6 6 57 5 113 l-2 102 49 78 c119 191 125
203 125 238 0 49 -50 92 -129 111 -9 1 -29 7 -46 12 -42 12 -80 -3 -104 -44
-19 -31 -41 -45 -41 -26 0 18 -57 72 -80 76 -14 2 -47 -5 -73 -15 -63 -25 -72
-24 -75 7 -6 72 -59 131 -153 169 -120 48 -197 52 -275 14 -37 -18 -47 -19
-60 -8 -18 15 -32 46 -39 92 -3 18 -8 40 -11 49 -3 11 16 33 64 71 144 115
225 304 207 485 -4 42 -9 113 -11 157 -2 44 -9 125 -16 180 -7 55 -12 117 -10
137 3 35 5 36 27 28 25 -10 34 -1 123 132 18 25 38 52 45 60 81 84 135 315
102 445 -21 85 -54 116 -205 196 -81 43 -177 109 -229 157 -25 24 -86 50 -115
50 -45 0 -146 -55 -186 -100 -3 -3 -45 -35 -95 -70 -103 -74 -133 -103 -148
-144 -10 -30 -11 -30 -117 -11 -26 5 -263 7 -314 2 -26 -2 -31 3 -43 38 -18
54 -56 91 -128 125 -324 153 -363 170 -410 175 -29 3 -58 0 -70 -7z"/>
</g>
</svg>
